<svg width="250" height="250" viewBox="0 0 250 250" fill="none" xmlns="http://www.w3.org/2000/svg">
<circle cx="125" cy="125" r="125" fill="#D9D9D9"/>
<circle cx="124.5" cy="124.5" r="112.5" fill="white"/>
<path d="M108.259 145.4L108.277 144.644C108.659 129.413 116.578 117.694 125.966 118.494C135.354 119.281 142.648 132.288 142.279 147.513C142.204 150.381 141.885 153.138 141.316 155.694C158.305 159.019 176.549 167.456 200 180.994C195.381 172.481 191.25 164.806 187.299 157.5C181.087 152.687 174.611 146.419 161.411 139.644C170.486 142.006 176.993 144.719 182.056 147.769C141.966 73.1625 138.729 63.2437 124.984 31C118.303 47.3625 114.284 58.0625 106.852 73.95C111.415 78.7875 117.009 84.4063 126.097 90.7625C116.328 86.7438 109.665 82.7063 104.684 78.525C95.1706 98.375 80.2575 126.65 50 181C73.7822 167.275 92.2143 158.819 109.39 155.581C108.612 152.244 108.232 148.827 108.259 145.4Z" fill="#1793D1"/>
</svg>
