<svg width="250" height="250" viewBox="0 0 250 250" fill="none" xmlns="http://www.w3.org/2000/svg">
<circle cx="125" cy="125" r="125" fill="#D9D9D9"/>
<circle cx="125.5" cy="125.5" r="112.5" fill="white"/>
<path d="M144.267 132.859C145.383 131.989 146.396 131.108 147.297 130.251C144.781 130.866 142.223 130.88 139.642 130.644C136.551 130.687 140.228 132.238 144.267 132.859ZM156.247 126.504C158.09 123.962 159.432 121.178 159.906 118.3C159.492 120.35 158.38 122.123 157.33 123.992C151.547 127.634 156.787 121.83 157.327 119.624C151.111 127.452 156.473 124.318 156.247 126.504ZM162.377 110.556C162.751 104.985 161.28 106.747 160.785 108.871C161.363 109.171 161.819 112.799 162.377 110.556ZM127.912 34.408C129.562 34.7037 131.48 34.9316 131.21 35.3254C133.016 34.9301 133.426 34.5649 127.912 34.408ZM131.13 35.4702L131.21 35.3254L130.044 35.5668L131.13 35.4702ZM126.916 150.597C122.463 148.513 118.387 145.364 115.036 141.512C116.813 144.116 118.734 146.647 121.216 148.635C117.017 147.214 111.41 138.463 109.773 138.107C117.009 151.063 139.13 160.828 150.714 155.983C145.353 156.179 138.546 156.093 132.523 153.868C130.205 152.674 127.132 150.315 127.107 149.539C126.991 149.842 126.797 150.143 126.916 150.597ZM193.612 98.717C193.662 95.8775 194.401 97.2294 194.688 96.5308C194.129 96.2094 192.667 94.0323 191.776 89.8559C192.421 88.8737 193.5 92.3998 194.38 92.5431C193.814 89.2222 192.841 86.692 192.803 84.1422C190.238 78.7814 191.895 84.8573 189.814 81.8413C187.083 73.3227 192.08 79.8632 192.417 75.9947C196.555 81.9906 198.917 91.2848 200 95.1337C199.172 90.4414 197.838 85.8954 196.207 81.4942C197.464 82.0253 194.182 71.8395 197.841 78.5838C193.932 64.2035 181.116 50.7678 169.323 44.4641C170.766 45.7843 172.588 47.4439 171.934 47.7019C166.069 44.2106 167.099 43.9375 166.261 42.4634C161.482 40.5201 161.168 42.6188 158.004 42.4665C149 37.6911 147.265 38.1981 138.977 35.2047L139.356 36.9669C133.389 34.9799 132.405 37.7213 125.958 36.973C125.564 36.6667 128.023 35.864 130.047 35.5698C124.279 36.3302 124.549 34.4337 118.906 35.7795C120.295 34.8048 121.766 34.1576 123.25 33.3277C118.548 33.6129 112.023 36.0647 114.037 33.8347C106.366 37.2611 92.7403 42.0666 85.0938 49.2364L84.8539 47.6295C81.3505 51.8345 69.5759 60.1902 68.639 65.6369L67.702 65.8557C65.8779 68.9426 64.698 72.4415 63.2526 75.6175C60.8672 79.6807 59.7568 77.1806 60.0977 77.8188C55.4069 87.3272 53.0774 95.3177 51.0661 101.869C52.501 104.013 51.0993 114.774 51.6425 123.384C49.2873 165.917 81.4923 207.211 116.694 216.746C121.854 218.59 129.528 218.521 136.055 218.711C128.352 216.508 127.356 217.545 119.858 214.927C114.446 212.378 113.26 209.47 109.426 206.144L110.944 208.825C103.427 206.165 106.573 205.533 100.456 203.596L102.077 201.481C99.64 201.295 95.6236 197.375 94.5268 195.202L91.8607 195.307C88.6591 191.357 86.9526 188.509 87.0764 186.304L86.2148 187.84C85.2387 186.163 74.4357 173.02 80.0409 176.082C78.9983 175.128 77.6148 174.531 76.1135 171.804L77.2542 170.499C74.5564 167.03 72.2887 162.579 72.4607 161.098C73.9001 163.043 74.8989 163.405 75.8872 163.738C69.075 146.834 68.6933 162.806 63.5333 146.531L64.6241 146.443C63.7867 145.182 63.2798 143.813 62.6069 142.47L63.0806 137.736C58.1771 132.064 61.7076 113.622 62.4168 103.507C62.9071 99.393 66.5101 95.016 69.25 88.151L67.5813 87.8628C70.7724 82.2954 85.806 65.5026 92.7675 66.3671C96.1396 62.129 92.0991 66.3521 91.4398 65.2838C98.8479 57.6162 101.176 59.8658 106.176 58.4883C111.567 55.2881 101.55 59.736 104.105 57.2677C113.426 54.8868 110.71 51.8556 122.871 50.6471C124.155 51.3773 119.894 51.7742 118.824 52.7217C126.591 48.9226 143.401 49.7856 154.318 54.8295C166.988 60.7514 181.223 78.2534 181.784 94.7203L182.423 94.8908C182.101 101.437 183.426 109.007 181.128 115.961L182.693 112.669C182.875 117.672 181.228 120.1 179.743 124.397L177.069 125.73C174.882 129.981 177.281 128.43 175.716 131.811C172.299 134.848 165.349 141.313 163.125 141.903C161.5 141.867 164.225 139.988 164.58 139.249C160.01 142.39 160.912 143.964 153.92 145.873L153.715 145.417C136.466 153.531 112.507 137.451 112.824 115.51C112.638 116.904 112.3 116.554 111.917 117.12C111.028 105.829 117.131 94.4909 127.424 89.8635C137.494 84.8769 149.297 86.9244 156.508 93.646C152.547 88.4558 144.662 82.9563 135.315 83.4708C126.163 83.6156 117.599 89.4335 114.741 95.7478C110.051 98.7004 109.507 107.13 107.463 108.671C104.714 128.879 112.635 137.608 126.035 147.876C127.118 148.607 127.243 149.018 127.15 149.393L127.166 149.362C142.974 155.269 159.305 153.838 172.982 142.872C176.461 140.162 180.262 135.551 181.36 135.486C179.707 137.974 181.644 136.683 180.372 138.879C183.839 133.286 178.865 136.603 183.956 129.222L185.837 131.811C185.138 127.171 191.599 121.533 190.944 114.194C192.426 111.949 192.599 116.61 191.024 121.774C193.206 116.044 191.599 115.124 192.162 110.395C192.767 111.984 193.562 113.674 193.971 115.35C192.548 109.813 195.43 106.024 196.142 102.807C195.445 102.5 193.953 105.258 193.612 98.717ZM105.441 137.06C107.475 139.822 109.088 142.814 111.685 144.973C109.817 141.327 108.43 139.821 105.876 134.89L105.441 137.06ZM110.681 134.702C109.606 133.511 108.967 132.079 108.255 130.651C108.939 133.16 110.333 135.314 111.633 137.508L110.681 134.702ZM189.893 134.561C192.94 128.832 194.911 122.563 195.739 116.214L195.284 117.355C194.449 123.273 192.651 129.131 189.893 134.561ZM135.884 32C132.992 32.2429 130.113 32.3878 127.27 32.7529L128.523 32.9249C130.615 32.1569 133.665 32.5039 135.884 32ZM55.938 75.2252C58.0865 70.3866 55.342 73.4916 55.1052 72.1971C55.4386 76.4911 51.8009 78.1176 55.938 75.2252ZM51.6561 86.1443C48.978 89.5678 50.4234 90.2965 50.1413 92.6261C51.1099 89.6507 51.2879 87.8643 51.6561 86.1443Z" fill="#A80030"/>
</svg>
